<svg width="14" height="67" viewBox="0 0 14 67" fill="none" xmlns="http://www.w3.org/2000/svg">
<path d="M2.77539 12.4648C1.97331 12.4648 1.57227 12.0501 1.57227 11.2207V2.08789C1.57227 1.69596 1.66341 1.39518 1.8457 1.18555C2.03711 0.966797 2.33789 0.857422 2.74805 0.857422H12.3594C12.569 0.857422 12.7422 0.902995 12.8789 0.994141C13.0247 1.07617 13.0977 1.23112 13.0977 1.45898C13.0977 1.68685 13.0247 1.84635 12.8789 1.9375C12.7422 2.01953 12.569 2.06055 12.3594 2.06055H3.41797C3.22656 2.06055 3.07617 2.11523 2.9668 2.22461C2.85742 2.33398 2.80273 2.48438 2.80273 2.67578V4.00195H10.7051C11.1061 4.00195 11.416 4.07943 11.6348 4.23438C11.8535 4.38021 11.9629 4.67188 11.9629 5.10938V7.87109C11.9629 8.60938 11.5938 8.97852 10.8555 8.97852H2.80273V10.6465C2.80273 10.8379 2.85742 10.9883 2.9668 11.0977C3.07617 11.207 3.22656 11.2617 3.41797 11.2617H12.6602C12.8698 11.2617 13.043 11.3073 13.1797 11.3984C13.3255 11.4805 13.3984 11.6354 13.3984 11.8633C13.3984 12.0911 13.3255 12.2461 13.1797 12.3281C13.043 12.4193 12.8698 12.4648 12.6602 12.4648H2.77539ZM2.80273 7.83008H10.1855C10.3405 7.83008 10.4635 7.78451 10.5547 7.69336C10.6458 7.5931 10.6914 7.46549 10.6914 7.31055V5.66992C10.6914 5.51497 10.6458 5.39193 10.5547 5.30078C10.4635 5.20052 10.3405 5.15039 10.1855 5.15039H2.80273V7.83008ZM1.24414 30.875C1.05273 30.875 0.888672 30.7975 0.751953 30.6426C0.624349 30.4876 0.560547 30.319 0.560547 30.1367C0.560547 29.9544 0.647135 29.7995 0.820312 29.6719C0.99349 29.5352 1.14844 29.4258 1.28516 29.3438C1.59505 29.1615 1.89583 28.9746 2.1875 28.7832C2.47917 28.5918 2.76172 28.3776 3.03516 28.1406C3.83724 27.457 4.47526 26.696 4.94922 25.8574C5.43229 25.0098 5.77865 24.1074 5.98828 23.1504C6.19792 22.1842 6.30273 21.1908 6.30273 20.1699C6.30273 20.0241 6.29362 19.8509 6.27539 19.6504C6.26628 19.4499 6.27083 19.2539 6.28906 19.0625C6.31641 18.862 6.38021 18.6979 6.48047 18.5703C6.58073 18.4427 6.74023 18.3789 6.95898 18.3789C7.16862 18.3789 7.33268 18.429 7.45117 18.5293C7.57878 18.6296 7.64258 18.7891 7.64258 19.0078C7.64258 19.4362 7.62435 19.8737 7.58789 20.3203C7.56055 20.7578 7.52409 21.1908 7.47852 21.6191L7.49219 21.6602C7.75651 22.7721 8.10742 23.7884 8.54492 24.709C8.99154 25.6204 9.55664 26.4499 10.2402 27.1973C10.9238 27.9447 11.7578 28.6191 12.7422 29.2207C12.888 29.3118 13.0384 29.4212 13.1934 29.5488C13.3574 29.6673 13.4395 29.8268 13.4395 30.0273C13.4395 30.2005 13.3665 30.3691 13.2207 30.5332C13.084 30.6973 12.9245 30.7793 12.7422 30.7793C12.5964 30.7793 12.4186 30.7292 12.209 30.6289C12.0085 30.5286 11.8125 30.4147 11.6211 30.2871C11.4297 30.1595 11.2747 30.0547 11.1562 29.9727C10.1445 29.2526 9.29688 28.3958 8.61328 27.4023C7.92969 26.3997 7.4056 25.3105 7.04102 24.1348C6.81315 25.0007 6.47591 25.8301 6.0293 26.623C5.58268 27.416 5.04492 28.1406 4.41602 28.7969C3.79622 29.444 3.0944 29.9909 2.31055 30.4375C2.19206 30.5013 2.02344 30.5879 1.80469 30.6973C1.58594 30.8158 1.39909 30.875 1.24414 30.875ZM1.96875 48.4785C1.51302 48.4785 1.28516 48.2598 1.28516 47.8223C1.28516 47.7402 1.32161 47.6126 1.39453 47.4395C1.46745 47.2663 1.54036 47.0931 1.61328 46.9199C1.69531 46.7376 1.75456 46.61 1.79102 46.5371C2.30143 45.3978 2.7526 44.2266 3.14453 43.0234C3.53646 41.8112 3.86458 40.599 4.12891 39.3867H1.73633C1.53581 39.3867 1.36719 39.3457 1.23047 39.2637C1.09375 39.1816 1.02539 39.0312 1.02539 38.8125C1.02539 38.5846 1.09375 38.4297 1.23047 38.3477C1.36719 38.2656 1.53581 38.2246 1.73633 38.2246H4.375C4.40234 38.0879 4.42969 37.9238 4.45703 37.7324C4.48438 37.541 4.52083 37.3496 4.56641 37.1582C4.62109 36.9668 4.70312 36.8073 4.8125 36.6797C4.92188 36.5521 5.07227 36.4883 5.26367 36.4883C5.66471 36.4883 5.86523 36.6797 5.86523 37.0625C5.86523 37.2357 5.83789 37.4316 5.7832 37.6504C5.72852 37.86 5.6875 38.0514 5.66016 38.2246H9.31055C9.51107 38.2246 9.67969 38.2656 9.81641 38.3477C9.96224 38.4297 10.0352 38.5846 10.0352 38.8125C10.0352 39.0312 9.96224 39.1816 9.81641 39.2637C9.67057 39.3457 9.50195 39.3867 9.31055 39.3867H5.41406L5.40039 39.4277C5.35482 39.6009 5.27734 39.8971 5.16797 40.3164C5.06771 40.7266 4.9401 41.2096 4.78516 41.7656C4.63021 42.3125 4.46159 42.8958 4.2793 43.5156C4.09701 44.1263 3.9056 44.7279 3.70508 45.3203C3.50456 45.9036 3.29948 46.4323 3.08984 46.9062C2.88932 47.3802 2.69336 47.7585 2.50195 48.041C2.31055 48.3327 2.13281 48.4785 1.96875 48.4785ZM7.39648 42.3672C7.06836 42.3672 6.9043 42.194 6.9043 41.8477C6.9043 41.6562 7.00456 41.4967 7.20508 41.3691C7.4056 41.2415 7.66536 41.1413 7.98438 41.0684C8.3125 40.9863 8.66341 40.9271 9.03711 40.8906C9.41992 40.8451 9.78906 40.8132 10.1445 40.7949C10.5091 40.7767 10.8281 40.7676 11.1016 40.7676C11.375 40.7676 11.5664 40.7676 11.6758 40.7676C11.8945 40.7676 12.0905 40.8132 12.2637 40.9043C12.4368 40.9863 12.5234 41.1549 12.5234 41.4102C12.5234 41.6562 12.446 41.8294 12.291 41.9297C12.1361 42.0208 11.9447 42.0664 11.7168 42.0664C11.2884 42.0664 10.9193 42.0664 10.6094 42.0664C10.3086 42.0664 10.0215 42.071 9.74805 42.0801C9.48372 42.0892 9.20117 42.112 8.90039 42.1484C8.59961 42.1758 8.24414 42.2259 7.83398 42.2988C7.77018 42.3079 7.69727 42.3216 7.61523 42.3398C7.5332 42.3581 7.46029 42.3672 7.39648 42.3672ZM10.2949 48.4375C9.9668 48.4375 9.60221 48.4193 9.20117 48.3828C8.80924 48.3555 8.41732 48.2962 8.02539 48.2051C7.64258 48.123 7.28711 47.9909 6.95898 47.8086C6.63997 47.6263 6.38021 47.3893 6.17969 47.0977C5.98828 46.7969 5.89258 46.4232 5.89258 45.9766C5.89258 45.8398 5.90625 45.6712 5.93359 45.4707C5.96094 45.2702 6.00651 45.0697 6.07031 44.8691C6.14323 44.6686 6.23893 44.5046 6.35742 44.377C6.48503 44.2402 6.63997 44.1719 6.82227 44.1719C6.98633 44.1719 7.11849 44.2083 7.21875 44.2812C7.31901 44.3542 7.36914 44.4772 7.36914 44.6504C7.36914 44.7871 7.32357 44.974 7.23242 45.2109C7.15039 45.4479 7.10938 45.6758 7.10938 45.8945C7.10938 46.1497 7.19596 46.3594 7.36914 46.5234C7.55143 46.6784 7.7793 46.8014 8.05273 46.8926C8.33529 46.9746 8.63151 47.0384 8.94141 47.084C9.2513 47.1204 9.54297 47.1432 9.81641 47.1523C10.0898 47.1615 10.3086 47.166 10.4727 47.166C10.7552 47.166 11.0378 47.1432 11.3203 47.0977C11.6029 47.0521 11.8854 47.0293 12.168 47.0293C12.3776 47.0293 12.5417 47.0794 12.6602 47.1797C12.7878 47.2708 12.8516 47.4258 12.8516 47.6445C12.8516 47.8724 12.7467 48.041 12.5371 48.1504C12.3366 48.2689 12.0859 48.3464 11.7852 48.3828C11.4935 48.4284 11.2064 48.4466 10.9238 48.4375C10.6504 48.4375 10.4408 48.4375 10.2949 48.4375ZM5.44141 66.6289C5.21354 66.6289 5.01302 66.5788 4.83984 66.4785C4.66667 66.3783 4.58008 66.2005 4.58008 65.9453C4.58008 65.7174 4.64388 65.5625 4.77148 65.4805C4.89909 65.3984 5.06315 65.3574 5.26367 65.3574C5.42773 65.3574 5.58724 65.3665 5.74219 65.3848C5.90625 65.3939 6.07031 65.3984 6.23438 65.3984C6.66276 65.3984 7.09115 65.3711 7.51953 65.3164C7.95703 65.2526 8.38542 65.1706 8.80469 65.0703C9.19661 64.9701 9.55664 64.8379 9.88477 64.6738C10.2129 64.5007 10.4772 64.2682 10.6777 63.9766C10.8783 63.6849 10.9785 63.3158 10.9785 62.8691C10.9785 62.3952 10.8509 62.0169 10.5957 61.7344C10.3405 61.4427 10.0169 61.2285 9.625 61.0918C9.24219 60.9551 8.8457 60.8867 8.43555 60.8867C7.63346 60.8867 6.89062 61.0098 6.20703 61.2559C5.53255 61.4928 4.88086 61.862 4.25195 62.3633C4.17904 62.4271 4.09701 62.4863 4.00586 62.541C3.92383 62.5957 3.83268 62.623 3.73242 62.623C3.55013 62.623 3.39974 62.582 3.28125 62.5C3.16276 62.418 3.10352 62.2767 3.10352 62.0762C3.10352 61.9577 3.1263 61.8392 3.17188 61.7207C3.21745 61.5931 3.25846 61.4746 3.29492 61.3652C3.50456 60.7454 3.68229 60.1074 3.82812 59.4512C3.97396 58.7858 4.10612 58.1341 4.22461 57.4961H1.90039C1.69987 57.4961 1.52214 57.4551 1.36719 57.373C1.22135 57.2819 1.14844 57.1224 1.14844 56.8945C1.14844 56.6576 1.22135 56.498 1.36719 56.416C1.51302 56.3249 1.69076 56.2793 1.90039 56.2793H4.45703V56.2383C4.46615 56.1927 4.47982 56.1016 4.49805 55.9648C4.52539 55.819 4.55273 55.6641 4.58008 55.5C4.60742 55.3268 4.63477 55.1764 4.66211 55.0488C4.69857 54.9121 4.73047 54.8255 4.75781 54.7891C4.88542 54.6068 5.06315 54.5156 5.29102 54.5156C5.68294 54.5156 5.87891 54.6979 5.87891 55.0625C5.87891 55.263 5.85612 55.4681 5.81055 55.6777C5.77409 55.8874 5.73763 56.0879 5.70117 56.2793H11.5117C11.7214 56.2793 11.8991 56.3249 12.0449 56.416C12.1908 56.498 12.2637 56.6576 12.2637 56.8945C12.2637 57.1224 12.1908 57.2819 12.0449 57.373C11.8991 57.4551 11.7214 57.4961 11.5117 57.4961H5.48242L4.73047 60.7637C5.27734 60.4173 5.85612 60.1576 6.4668 59.9844C7.07747 59.8112 7.70182 59.7246 8.33984 59.7246C8.85026 59.7246 9.34245 59.7839 9.81641 59.9023C10.2995 60.0208 10.7279 60.2077 11.1016 60.4629C11.4753 60.709 11.7715 61.0371 11.9902 61.4473C12.209 61.8483 12.3184 62.3405 12.3184 62.9238C12.3184 63.5983 12.1634 64.1634 11.8535 64.6191C11.5436 65.0658 11.1289 65.4258 10.6094 65.6992C10.099 65.9635 9.53841 66.1641 8.92773 66.3008C8.31706 66.4375 7.70638 66.5241 7.0957 66.5605C6.49414 66.6061 5.94271 66.6289 5.44141 66.6289Z" fill="#FF0000"/>
</svg>
